<svg aria-hidden="true" style="position: absolute; width: 0; height: 0; overflow: hidden;" version="1.1" xmlns="http://www.w3.org/2000/svg" xmlns:xlink="http://www.w3.org/1999/xlink">
<defs>
<symbol id="icon-instagram-2" viewBox="0 0 32 32">
<path fill="#565656" style="fill: var(--color1, #565656)" d="M16.002 12.062c-2.18 0-3.938 1.758-3.938 3.938s1.758 3.938 3.938 3.938c2.18 0 3.938-1.758 3.938-3.938s-1.758-3.938-3.938-3.938zM16.002 18.56c-1.409 0-2.56-1.148-2.56-2.56s1.148-2.56 2.56-2.56c1.412 0 2.56 1.148 2.56 2.56s-1.152 2.56-2.56 2.56v0zM21.020 11.901c0 0.511-0.411 0.919-0.919 0.919-0.511 0-0.919-0.411-0.919-0.919s0.411-0.919 0.919-0.919c0.507 0 0.919 0.411 0.919 0.919zM23.628 12.833c-0.058-1.23-0.339-2.32-1.241-3.218-0.898-0.898-1.988-1.179-3.218-1.241-1.268-0.072-5.069-0.072-6.337 0-1.227 0.058-2.317 0.339-3.218 1.237s-1.179 1.988-1.241 3.218c-0.072 1.268-0.072 5.069 0 6.337 0.058 1.23 0.339 2.32 1.241 3.218s1.988 1.179 3.218 1.241c1.268 0.072 5.069 0.072 6.337 0 1.23-0.058 2.32-0.339 3.218-1.241 0.898-0.898 1.179-1.988 1.241-3.218 0.072-1.268 0.072-5.066 0-6.334v0zM21.99 20.528c-0.267 0.672-0.785 1.189-1.46 1.46-1.011 0.401-3.41 0.308-4.528 0.308s-3.52 0.089-4.528-0.308c-0.672-0.267-1.189-0.785-1.46-1.46-0.401-1.011-0.308-3.41-0.308-4.528s-0.089-3.52 0.308-4.528c0.267-0.672 0.785-1.189 1.46-1.46 1.011-0.401 3.41-0.308 4.528-0.308s3.52-0.089 4.528 0.308c0.672 0.267 1.189 0.785 1.46 1.46 0.401 1.011 0.308 3.41 0.308 4.528s0.093 3.52-0.308 4.528z"></path>
<path fill="none" stroke="#565656" style="stroke: var(--color1, #565656)" stroke-linejoin="miter" stroke-linecap="butt" stroke-miterlimit="4" stroke-width="0.64" d="M0.32 0.32h31.36v31.36h-31.36v-31.36z"></path>
</symbol>
</defs>
</svg>
